<svg width="68" height="68" viewBox="0 0 68 68" fill="none" xmlns="http://www.w3.org/2000/svg">
<path d="M10.6667 14.0003C7.00002 14.0003 4.00002 17.0003 4.00002 20.667C4.00002 24.3337 7.00002 27.3337 10.6667 27.3337C14.3334 27.3337 17.3334 24.367 17.3334 20.667C17.3334 16.967 14.3667 14.0003 10.6667 14.0003ZM34 7.33366C32.6815 7.33366 31.3925 7.72465 30.2962 8.4572C29.1999 9.18974 28.3454 10.2309 27.8408 11.4491C27.3362 12.6673 27.2042 14.0077 27.4615 15.3009C27.7187 16.5941 28.3536 17.782 29.286 18.7144C30.2183 19.6467 31.4062 20.2817 32.6994 20.5389C33.9926 20.7961 35.3331 20.6641 36.5512 20.1595C37.7694 19.6549 38.8106 18.8005 39.5432 17.7041C40.2757 16.6078 40.6667 15.3189 40.6667 14.0003C40.6667 10.3003 37.7 7.33366 34 7.33366ZM57.3334 0.666992C53.6667 0.666992 50.6667 3.66699 50.6667 7.33366C50.6667 11.0003 53.6667 14.0003 57.3334 14.0003C61 14.0003 64 11.0337 64 7.33366C64 3.63366 61.0334 0.666992 57.3334 0.666992ZM5.66669 30.667C2.90002 30.667 0.666687 32.9003 0.666687 35.667V50.667H4.00002V67.3337H17.3334V50.667H20.6667V35.667C20.6667 32.9003 18.4334 30.667 15.6667 30.667H5.66669ZM29 24.0003C26.2334 24.0003 24 26.2337 24 29.0003V44.0003H27.3334V60.667H40.6667V44.0003H44V29.0003C44 26.2337 41.7667 24.0003 39 24.0003H29ZM52.3334 17.3337C49.5667 17.3337 47.3334 19.567 47.3334 22.3337V37.3337H50.6667V54.0003H64V37.3337H67.3334V22.3337C67.3334 19.567 65.1 17.3337 62.3334 17.3337H52.3334Z" fill="#FAAD14"/>
</svg>
