<svg width="80" height="80" viewBox="0 0 80 80" fill="none" xmlns="http://www.w3.org/2000/svg">
<path d="M40 6.66699C21.6 6.66699 6.66669 21.6003 6.66669 40.0003C6.66669 58.4003 21.6 73.3337 40 73.3337C58.4 73.3337 73.3334 58.4003 73.3334 40.0003C73.3334 21.6003 58.4 6.66699 40 6.66699ZM45 20.0003C46.8334 20.0003 48.3334 21.5003 48.3334 23.3337C48.3334 25.167 46.8334 26.667 45 26.667C43.1667 26.667 41.6667 25.167 41.6667 23.3337C41.6667 21.5003 43.1667 20.0003 45 20.0003ZM53.3334 40.0003C51 40.0003 46.6334 38.2003 43.6334 34.1337L42.2667 41.967L46.6667 46.767V60.0003H43.3334V48.067L39.6334 44.0337L37.9 52.8337L25.3334 50.267L26 47.0003L35.2667 48.9003L38.4667 32.6003L33.3334 34.5003V40.0003H30V32.167L40.9334 28.1337C42.5667 27.5337 44.3667 28.3337 45.1334 29.9003C47.9 35.567 51.9667 36.667 53.3334 36.667V40.0003Z" fill="#1D39C4"/>
</svg>
